# xmcd
#
# Track frame offsets: 
#        150
#        21300
#        36693
#        56539
#        75214
#        94521
#        113796
#        127745
#
# Disc length: 1913 seconds
#
# Revision: 2
# Processed by: cddbd v1.5.2PL0 Copyright (c) Steve Scherf et al.
# Submitted via: ExactAudioCopyFreeDBPlugin 1.0
#
DISCID=59077708
DTITLE=洛天依 - ∞
DYEAR=2018
DGENRE=Vocal
TTITLE0=流星车手
TTITLE1=Infinite★BLUE
TTITLE2=漂流
TTITLE3=与君愿
TTITLE4=长信
TTITLE5=悬梯
TTITLE6=HELLO HELLO
TTITLE7=为谁而为
EXTD=
EXTT0=
EXTT1=
EXTT2=
EXTT3=
EXTT4=
EXTT5=
EXTT6=
EXTT7=
PLAYORDER=
